<svg version="1.1" id="Layer_1" xmlns="http://www.w3.org/2000/svg" xmlns:xlink="http://www.w3.org/1999/xlink" x="0px" y="0px"
	 width="100%" viewBox="0 0 1024 1024" enable-background="new 0 0 1024 1024" xml:space="preserve">
<path fill="#000000" opacity="1.000000" stroke="none" 
	d="
M669.000000,1025.000000 
	C446.000000,1025.000000 223.500000,1025.000000 1.000000,1025.000000 
	C1.000000,683.666687 1.000000,342.333344 1.000000,1.000000 
	C342.333344,1.000000 683.666687,1.000000 1025.000000,1.000000 
	C1025.000000,342.333344 1025.000000,683.666687 1025.000000,1025.000000 
	C906.500000,1025.000000 788.000000,1025.000000 669.000000,1025.000000 
M760.152039,513.083862 
	C760.152039,513.083862 760.178467,513.184143 760.874207,512.850891 
	C761.005554,511.600433 761.136902,510.349976 761.157471,509.078369 
	C761.157471,509.078369 761.188782,509.186737 761.906006,508.825836 
	C762.271240,505.217010 762.636536,501.608185 763.180786,497.666656 
	C763.180786,497.666656 763.123352,497.293213 763.900696,496.824219 
	C763.923828,493.691925 763.946960,490.559662 764.350220,486.946381 
	C764.642273,484.534760 765.183411,482.123657 765.188293,479.711456 
	C765.243225,452.410645 765.230591,425.109711 765.205505,397.808777 
	C765.188965,379.789520 759.678528,363.593170 748.540222,348.845642 
	C748.322327,348.596375 748.125671,348.331360 747.574890,347.450562 
	C746.002502,345.661102 744.430115,343.871643 742.449829,341.566895 
	C739.909485,339.093231 737.369202,336.619537 734.405457,333.626007 
	C726.279968,327.990784 718.582031,321.560303 709.928040,316.908203 
	C697.194214,310.062988 682.956726,307.222229 668.628235,307.024414 
	C633.635437,306.541229 598.631897,306.821442 563.632690,306.825287 
	C557.065308,306.826019 551.208557,308.972076 545.427307,313.393097 
	C543.358643,314.988647 541.289978,316.584198 538.718506,318.549774 
	C537.925537,319.181335 537.132629,319.812897 535.798706,320.755707 
	C534.683228,321.639252 533.567749,322.522827 531.949951,323.729858 
	C531.352417,324.256409 530.754883,324.782959 529.653503,325.672424 
	C528.531433,326.581085 527.409424,327.489777 525.706726,328.736908 
	C523.511780,330.548309 521.316895,332.359741 518.525269,334.523438 
	C513.080811,338.591187 507.590851,342.599701 502.201508,346.739197 
	C491.398560,355.036865 480.571838,363.307526 469.931824,371.810730 
	C467.044342,374.118347 464.635529,376.577393 464.706177,381.331329 
	C465.077026,406.277710 464.824310,431.232910 464.961029,456.184082 
	C464.973206,458.408752 466.223572,460.626648 467.049988,463.344788 
	C477.116699,456.067169 486.221558,449.518066 495.290588,442.919739 
	C505.688202,435.354797 516.054077,427.746155 527.064880,419.960907 
	C527.769043,419.294861 528.390503,418.499878 529.192139,417.985718 
	C532.287537,416.000397 534.255676,411.936859 538.084656,413.170532 
	C538.068359,438.429474 538.052063,463.688385 537.821472,489.874512 
	C537.880066,511.581390 537.938660,533.288269 537.762451,555.908325 
	C537.754761,568.362244 537.716187,580.816162 537.746155,593.270020 
	C537.800537,615.847107 537.895752,638.424133 537.748047,661.914978 
	C537.747986,666.913757 537.654663,671.915527 537.818787,676.908936 
	C537.856018,678.040955 538.547913,679.776123 539.371399,680.087097 
	C540.247620,680.417969 541.716797,679.523132 542.778748,678.907532 
	C543.616272,678.421997 544.239136,677.558472 544.939575,676.845459 
	C570.031555,651.304626 595.164001,625.803284 620.168030,600.176636 
	C624.146729,596.098816 628.529053,594.147034 634.265381,594.116577 
	C646.904480,594.049500 659.585205,594.076233 672.166443,593.050903 
	C684.728821,592.027161 696.632202,588.006592 707.769470,581.953552 
	C723.395996,573.460510 735.708740,561.308105 745.635803,546.775635 
	C752.067566,537.360046 757.620300,527.376404 760.255066,515.307800 
	C760.254211,514.575012 760.253418,513.842285 760.152039,513.083862 
M297.706177,441.196930 
	C312.289490,430.564087 326.872772,419.931244 342.026276,408.882690 
	C342.026276,411.120972 342.026733,412.712830 342.026245,414.304657 
	C341.998962,501.104462 341.970886,587.904297 341.945740,674.704102 
	C341.943909,681.053650 342.698273,681.817383 349.121002,681.819214 
	C374.445068,681.826416 399.769165,681.824280 425.093231,681.807373 
	C431.595062,681.803040 432.130432,681.238892 432.130615,674.622864 
	C432.134247,554.166504 432.134979,433.710144 432.134186,313.253784 
	C432.134125,306.877960 431.965088,306.708618 425.803223,306.709961 
	C403.478088,306.714752 381.152191,306.817139 358.828430,306.645142 
	C354.590607,306.612518 351.343567,307.746552 348.026886,310.411011 
	C321.305542,331.877502 294.481110,353.216614 267.564850,374.438232 
	C264.777985,376.635559 263.646423,378.805023 263.665924,382.330475 
	C263.801361,406.820801 263.692383,431.312439 263.795959,455.803070 
	C263.804993,457.936920 264.779480,460.066681 265.305511,462.198334 
	C267.427795,461.471954 269.848328,461.175781 271.621796,459.946259 
	C280.223999,453.982361 288.652679,447.768066 297.706177,441.196930 
z"/>
<path fill="#FEFEFF" opacity="1.000000" stroke="none" 
	d="
M297.424500,441.419739 
	C288.652679,447.768066 280.223999,453.982361 271.621796,459.946259 
	C269.848328,461.175781 267.427795,461.471954 265.305511,462.198334 
	C264.779480,460.066681 263.804993,457.936920 263.795959,455.803070 
	C263.692383,431.312439 263.801361,406.820801 263.665924,382.330475 
	C263.646423,378.805023 264.777985,376.635559 267.564850,374.438232 
	C294.481110,353.216614 321.305542,331.877502 348.026886,310.411011 
	C351.343567,307.746552 354.590607,306.612518 358.828430,306.645142 
	C381.152191,306.817139 403.478088,306.714752 425.803223,306.709961 
	C431.965088,306.708618 432.134125,306.877960 432.134186,313.253784 
	C432.134979,433.710144 432.134247,554.166504 432.130615,674.622864 
	C432.130432,681.238892 431.595062,681.803040 425.093231,681.807373 
	C399.769165,681.824280 374.445068,681.826416 349.121002,681.819214 
	C342.698273,681.817383 341.943909,681.053650 341.945740,674.704102 
	C341.970886,587.904297 341.998962,501.104462 342.026245,414.304657 
	C342.026733,412.712830 342.026276,411.120972 342.026276,408.882690 
	C326.872772,419.931244 312.289490,430.564087 297.424500,441.419739 
z"/>
<path fill="#3C89FE" opacity="1.000000" stroke="none" 
	d="
M763.123352,497.293213 
	C763.123352,497.293213 763.180786,497.666656 762.806641,498.087952 
	C762.017883,502.068390 761.603333,505.627563 761.188782,509.186737 
	C761.188782,509.186737 761.157471,509.078369 760.874756,509.266907 
	C760.454224,510.698334 760.316345,511.941254 760.178467,513.184143 
	C760.178467,513.184143 760.152039,513.083862 759.906738,513.212708 
	C759.764526,514.222656 759.867737,515.103699 759.970947,515.984802 
	C757.620300,527.376404 752.067566,537.360046 745.635803,546.775635 
	C735.708740,561.308105 723.395996,573.460510 707.769470,581.953552 
	C696.632202,588.006592 684.728821,592.027161 672.166443,593.050903 
	C659.585205,594.076233 646.904480,594.049500 634.265381,594.116577 
	C628.529053,594.147034 624.146729,596.098816 620.168030,600.176636 
	C595.164001,625.803284 570.031555,651.304626 544.939575,676.845459 
	C544.239136,677.558472 543.616272,678.421997 542.778748,678.907532 
	C541.716797,679.523132 540.247620,680.417969 539.371399,680.087097 
	C538.547913,679.776123 537.856018,678.040955 537.818787,676.908936 
	C537.654663,671.915527 537.747986,666.913757 538.159912,661.166077 
	C538.710510,658.607361 538.965759,656.797729 538.969727,654.987610 
	C539.007324,637.659912 539.002441,620.332092 539.404663,603.003784 
	C540.621460,603.092041 541.753479,602.863953 542.217590,603.318298 
	C547.479187,608.468506 553.254639,605.238892 558.271729,603.617737 
	C569.003540,600.149963 579.516846,595.909119 589.879211,591.428833 
	C596.870239,588.406311 603.502319,584.528687 610.202026,580.863586 
	C619.531860,575.759583 630.263306,573.186890 638.127869,565.433044 
	C642.072693,561.543762 648.479553,562.225281 652.158630,557.271912 
	C654.689209,553.864807 658.419373,550.597473 662.317261,549.100952 
	C673.064026,544.974976 680.921204,536.900085 690.030273,530.543396 
	C692.264465,528.984253 695.242249,528.416382 697.308899,526.705261 
	C703.962341,521.196533 710.318359,515.330078 716.861328,509.685272 
	C718.578613,508.203827 720.499817,506.933716 722.426270,505.724121 
	C730.947815,500.373779 738.793213,494.118011 744.807068,486.078857 
	C749.629700,479.632263 753.292053,472.330017 757.802795,465.632080 
	C759.726562,462.775482 762.499268,460.490509 764.973755,458.329193 
	C765.003540,459.230682 764.945801,459.748718 764.603149,460.487122 
	C764.508789,463.049438 764.699341,465.391449 764.990112,468.187317 
	C765.019897,470.794464 764.949463,472.947693 764.489258,475.167053 
	C763.733093,476.421082 763.064331,477.605682 763.051086,478.797516 
	C762.982849,484.961731 763.082397,491.127808 763.123352,497.293213 
z"/>
<path fill="#61AFFF" opacity="1.000000" stroke="none" 
	d="
M546.062256,313.052673 
	C551.208557,308.972076 557.065308,306.826019 563.632690,306.825287 
	C598.631897,306.821442 633.635437,306.541229 668.628235,307.024414 
	C682.956726,307.222229 697.194214,310.062988 709.928040,316.908203 
	C718.582031,321.560303 726.279968,327.990784 734.632568,333.878113 
	C734.859741,334.130188 734.847229,334.153381 734.494324,334.092865 
	C730.388123,331.756958 726.634766,329.481567 722.878723,327.204498 
	C721.728821,329.135834 720.923279,330.994019 719.678162,332.485046 
	C715.993896,336.896790 712.154968,341.180389 708.340698,345.482330 
	C704.404785,349.921570 700.646179,354.547882 696.414429,358.688049 
	C690.418213,364.554504 683.151733,369.347656 678.089417,375.885834 
	C671.982422,383.773254 663.146423,387.968781 656.281006,394.697357 
	C653.749512,397.178467 649.599121,397.915070 646.623779,400.054535 
	C639.321533,405.305298 632.393921,411.077301 625.087708,416.322144 
	C618.209045,421.260132 611.149719,425.972168 603.939758,430.409668 
	C601.239563,432.071564 597.791809,432.463287 594.854309,433.804901 
	C583.097473,439.174225 572.869202,447.622467 560.105652,450.998840 
	C556.989929,451.822998 554.020142,453.634033 550.895752,453.880035 
	C546.985657,454.187866 542.985229,453.348511 539.013428,452.535522 
	C539.014343,440.714294 539.025696,429.361938 539.425171,418.007294 
	C541.050293,418.365021 542.959473,418.346466 543.411133,419.148590 
	C545.730957,423.268768 548.998474,422.051544 552.137817,420.949921 
	C556.621765,419.376495 561.177124,417.859314 565.402832,415.725677 
	C575.787292,410.482269 585.998047,404.894897 596.284790,399.457642 
	C599.743042,397.629730 603.307251,395.984406 606.668457,393.994659 
	C611.894043,390.901398 617.244202,387.926178 622.079895,384.287384 
	C630.486023,377.961823 638.017456,370.343475 646.852295,364.745331 
	C664.252808,353.719452 680.258972,341.120392 694.843811,326.643188 
	C699.216125,322.303162 699.298279,317.738007 693.903320,314.845459 
	C689.124390,312.283142 683.370605,311.538879 677.823486,309.710754 
	C675.376831,309.274994 673.153870,309.120514 670.571411,308.969360 
	C669.493042,308.975250 668.774048,308.977844 667.754028,308.690399 
	C661.515991,307.969147 655.581421,307.206665 649.641846,307.165894 
	C627.676086,307.014954 605.706787,307.274536 583.742615,307.034760 
	C570.782166,306.893280 557.931274,306.750153 546.039795,313.048492 
	C546.026917,313.033173 546.062256,313.052673 546.062256,313.052673 
z"/>
<path fill="#67B5FE" opacity="1.000000" stroke="none" 
	d="
M678.047180,309.992035 
	C683.370605,311.538879 689.124390,312.283142 693.903320,314.845459 
	C699.298279,317.738007 699.216125,322.303162 694.843811,326.643188 
	C680.258972,341.120392 664.252808,353.719452 646.852295,364.745331 
	C638.017456,370.343475 630.486023,377.961823 622.079895,384.287384 
	C617.244202,387.926178 611.894043,390.901398 606.668457,393.994659 
	C603.307251,395.984406 599.743042,397.629730 596.284790,399.457642 
	C585.998047,404.894897 575.787292,410.482269 565.402832,415.725677 
	C561.177124,417.859314 556.621765,419.376495 552.137817,420.949921 
	C548.998474,422.051544 545.730957,423.268768 543.411133,419.148590 
	C542.959473,418.346466 541.050293,418.365021 539.413086,417.561829 
	C538.957397,415.638397 538.901978,414.158173 538.846558,412.677917 
	C534.255676,411.936859 532.287537,416.000397 529.192139,417.985718 
	C528.390503,418.499878 527.769043,419.294861 526.366821,420.040649 
	C520.983643,423.149689 516.188843,426.023621 511.634155,429.237762 
	C498.539276,438.478455 485.558746,447.881165 472.476471,457.139862 
	C471.285217,457.982910 469.685730,458.249054 468.275818,458.783081 
	C467.849121,457.470154 467.052979,456.157959 467.050232,454.844116 
	C466.996735,429.259308 467.035828,403.674286 467.346466,378.372803 
	C467.759583,385.103394 467.882172,391.550476 468.003204,398.466370 
	C468.001678,406.806366 468.001678,414.677551 468.001678,423.170471 
	C470.566589,421.756744 472.080048,420.833618 473.667572,420.063110 
	C480.370270,416.809998 488.007019,418.677734 495.049957,415.321625 
	C504.621979,410.760406 515.186768,408.295349 525.296692,404.845703 
	C531.932800,402.581329 538.514465,400.157440 545.126160,397.821014 
	C549.454346,396.291595 553.843567,394.919739 558.109070,393.233704 
	C561.145325,392.033569 563.983704,390.342529 566.978271,389.024933 
	C570.463623,387.491364 574.212402,386.465942 577.515503,384.625519 
	C588.263550,378.636963 599.044250,372.670197 609.461426,366.135559 
	C619.036255,360.129272 628.140747,353.375214 637.485107,346.998444 
	C641.985840,343.927032 646.561096,340.964600 651.103821,337.954773 
	C661.732605,330.912537 672.253479,323.778625 675.379517,309.999023 
	C676.522339,309.997040 677.284790,309.994537 678.047180,309.992035 
z"/>
<path fill="#61AFFF" opacity="1.000000" stroke="none" 
	d="
M467.055908,378.089294 
	C467.035828,403.674286 466.996735,429.259308 467.050232,454.844116 
	C467.052979,456.157959 467.849121,457.470154 468.275818,458.783081 
	C469.685730,458.249054 471.285217,457.982910 472.476471,457.139862 
	C485.558746,447.881165 498.539276,438.478455 511.634155,429.237762 
	C516.188843,426.023621 520.983643,423.149689 526.051270,420.138428 
	C516.054077,427.746155 505.688202,435.354797 495.290588,442.919739 
	C486.221558,449.518066 477.116699,456.067169 467.049988,463.344788 
	C466.223572,460.626648 464.973206,458.408752 464.961029,456.184082 
	C464.824310,431.232910 465.077026,406.277710 464.706177,381.331329 
	C464.635529,376.577393 467.044342,374.118347 469.931824,371.810730 
	C480.571838,363.307526 491.398560,355.036865 502.201508,346.739197 
	C507.590851,342.599701 513.080811,338.591187 518.825684,334.348328 
	C519.126160,334.173248 519.135498,334.184387 518.962402,334.468597 
	C512.228394,340.466614 505.744843,346.272583 499.085602,351.869415 
	C491.787994,358.002747 484.328217,363.943054 476.636230,370.111176 
	C473.240875,372.866364 470.148376,375.477844 467.055908,378.089294 
z"/>
<path fill="#61AFFF" opacity="1.000000" stroke="none" 
	d="
M764.888062,460.266785 
	C764.945801,459.748718 765.003540,459.230682 765.068909,457.885468 
	C765.011658,454.312622 764.946716,451.566956 764.967041,448.496338 
	C764.995361,447.507751 764.938477,446.844025 764.970520,445.746765 
	C765.000244,444.140533 764.941040,442.967865 764.972473,441.358551 
	C764.993225,429.255554 764.923340,417.589172 764.937866,405.473511 
	C764.672913,393.059082 764.366150,381.086670 758.999634,369.682312 
	C758.658081,368.928711 758.333984,368.471008 758.005859,368.006042 
	C758.001831,367.998779 757.991821,367.985565 758.005005,367.654755 
	C757.704468,366.575470 757.390869,365.826965 757.055054,365.026794 
	C757.032898,364.975098 756.962830,364.887115 756.974487,364.604736 
	C756.660706,363.908234 756.335327,363.494080 755.759277,363.055878 
	C755.341309,363.019073 755.173950,363.006317 755.005920,362.602295 
	C754.672119,361.008179 754.338928,359.805389 753.985962,358.364624 
	C753.666870,357.769409 753.367615,357.412140 753.042297,357.019684 
	C753.016174,356.984497 752.952820,356.923859 752.857178,356.718506 
	C752.568665,356.264771 752.320557,356.099152 752.008667,356.008240 
	C752.000305,356.000061 751.988098,355.980194 751.975647,355.686340 
	C751.646301,354.937622 751.329407,354.482758 750.760376,354.022461 
	C750.340027,354.012573 750.171936,354.008209 749.995361,353.660278 
	C749.952942,352.859802 749.919067,352.402954 749.822144,351.738037 
	C749.591492,351.274139 749.359009,351.110229 749.042114,351.011017 
	C749.022644,350.983765 748.978271,350.933594 748.989807,350.620544 
	C748.970093,349.890411 748.938843,349.473358 748.919617,349.081177 
	C748.931702,349.106079 748.922363,349.160614 748.922363,349.160614 
	C759.678528,363.593170 765.188965,379.789520 765.205505,397.808777 
	C765.230591,425.109711 765.243225,452.410645 765.188293,479.711456 
	C765.183411,482.123657 764.642273,484.534760 764.242981,486.826416 
	C764.383484,482.837921 764.631226,478.969452 764.879028,475.100952 
	C764.949463,472.947693 765.019897,470.794464 765.079712,467.787659 
	C765.008728,464.711670 764.948364,462.489227 764.888062,460.266785 
z"/>
<path fill="#4D9CFF" opacity="1.000000" stroke="none" 
	d="
M539.009766,603.004333 
	C539.002441,620.332092 539.007324,637.659912 538.969727,654.987610 
	C538.965759,656.797729 538.710510,658.607361 538.272827,660.709167 
	C537.895752,638.424133 537.800537,615.847107 537.746155,593.270020 
	C537.716187,580.816162 537.754761,568.362244 538.125366,555.447388 
	C538.488342,554.986389 538.979431,554.979187 538.987915,555.449768 
	C539.002686,561.948730 539.008972,567.977173 539.011963,574.473877 
	C539.009094,584.296204 539.009460,593.650269 539.009766,603.004333 
z"/>
<path fill="#76C3FE" opacity="1.000000" stroke="none" 
	d="
M538.465576,412.924225 
	C538.901978,414.158173 538.957397,415.638397 539.024902,417.564087 
	C539.025696,429.361938 539.014343,440.714294 539.004517,453.003662 
	C539.008362,463.294159 539.010803,472.647675 539.003784,482.437683 
	C538.985596,484.907928 538.976807,486.941742 538.734802,488.974548 
	C538.501587,488.973541 538.035828,488.947327 538.035828,488.947327 
	C538.052063,463.688385 538.068359,438.429474 538.465576,412.924225 
z"/>
<path fill="#61AFFF" opacity="1.000000" stroke="none" 
	d="
M537.928650,489.410919 
	C538.035828,488.947327 538.501587,488.973541 538.748779,489.441803 
	C539.005737,494.274994 539.015564,498.639954 539.017822,503.471924 
	C539.012878,509.293304 539.015442,514.647583 539.012207,520.470398 
	C539.005981,529.625916 539.005432,538.312988 539.000305,547.443665 
	C538.990295,550.251282 538.984863,552.615234 538.979431,554.979187 
	C538.979431,554.979187 538.488342,554.986389 538.242798,554.990723 
	C537.938660,533.288269 537.880066,511.581390 537.928650,489.410919 
z"/>
<path fill="#4290FF" opacity="1.000000" stroke="none" 
	d="
M764.489258,475.167053 
	C764.631226,478.969452 764.383484,482.837921 764.052979,487.066895 
	C763.946960,490.559662 763.923828,493.691925 763.512024,497.058716 
	C763.082397,491.127808 762.982849,484.961731 763.051086,478.797516 
	C763.064331,477.605682 763.733093,476.421082 764.489258,475.167053 
z"/>
<path fill="#61AFFF" opacity="1.000000" stroke="none" 
	d="
M734.844360,334.138031 
	C737.369202,336.619537 739.909485,339.093231 742.670166,341.817078 
	C742.890564,342.067291 742.897400,342.094452 742.569824,342.023621 
	C740.828918,341.300049 739.415710,340.647308 737.962708,339.646301 
	C736.897705,337.583130 735.872498,335.868256 734.847229,334.153381 
	C734.847229,334.153381 734.859741,334.130188 734.844360,334.138031 
z"/>
<path fill="#61AFFF" opacity="1.000000" stroke="none" 
	d="
M742.874146,342.074738 
	C744.430115,343.871643 746.002502,345.661102 747.780151,347.746674 
	C747.985413,348.042786 747.956482,348.070312 747.723511,348.050964 
	C747.490540,348.031647 747.024231,348.058929 746.719849,347.901703 
	C745.242737,345.861145 744.070068,343.977783 742.897400,342.094421 
	C742.897400,342.094452 742.890564,342.067291 742.874146,342.074738 
z"/>
<path fill="#4290FF" opacity="1.000000" stroke="none" 
	d="
M761.547363,509.006287 
	C761.603333,505.627563 762.017883,502.068390 762.717163,498.254272 
	C762.636536,501.608185 762.271240,505.217010 761.547363,509.006287 
z"/>
<path fill="#61AFFF" opacity="1.000000" stroke="none" 
	d="
M519.124023,334.172211 
	C521.316895,332.359741 523.511780,330.548309 525.992065,328.543945 
	C526.277344,328.350952 526.283630,328.302826 526.153687,328.604919 
	C523.727661,330.666168 521.431580,332.425262 519.135498,334.184387 
	C519.135498,334.184387 519.126160,334.173248 519.124023,334.172211 
z"/>
<path fill="#61AFFF" opacity="1.000000" stroke="none" 
	d="
M539.221252,318.179749 
	C541.289978,316.584198 543.358643,314.988647 545.744751,313.222900 
	C546.062256,313.052673 546.026917,313.033173 545.863647,313.329376 
	C543.512512,315.146820 541.324707,316.668060 539.156860,318.177795 
	C539.176880,318.166290 539.221252,318.179718 539.221252,318.179749 
z"/>
<path fill="#61AFFF" opacity="1.000000" stroke="none" 
	d="
M532.452209,323.406372 
	C533.567749,322.522827 534.683228,321.639252 536.062622,320.571594 
	C536.326477,320.387451 536.316833,320.329742 536.192932,320.636719 
	C534.822449,321.754089 533.575806,322.564484 532.360168,323.382080 
	C532.391113,323.389252 532.452209,323.406372 532.452209,323.406372 
z"/>
<path fill="#61AFFF" opacity="1.000000" stroke="none" 
	d="
M526.282349,328.374695 
	C527.409424,327.489777 528.531433,326.581085 529.900757,325.463501 
	C530.148010,325.254608 530.143677,325.199097 529.985413,325.473755 
	C528.645996,326.599884 527.464783,327.451355 526.283630,328.302826 
	C526.283630,328.302826 526.277344,328.350952 526.282349,328.374695 
z"/>
<path fill="#61AFFF" opacity="1.000000" stroke="none" 
	d="
M536.333069,320.415955 
	C537.132629,319.812897 537.925537,319.181335 538.969849,318.364746 
	C539.221252,318.179718 539.176880,318.166290 539.001953,318.439697 
	C537.990234,319.251984 537.153564,319.790863 536.316833,320.329742 
	C536.316833,320.329742 536.326477,320.387451 536.333069,320.415955 
z"/>
<path fill="#4290FF" opacity="1.000000" stroke="none" 
	d="
M760.526367,513.017517 
	C760.316345,511.941254 760.454224,510.698334 760.930176,509.277466 
	C761.136902,510.349976 761.005554,511.600433 760.526367,513.017517 
z"/>
<path fill="#4290FF" opacity="1.000000" stroke="none" 
	d="
M760.113037,515.646301 
	C759.867737,515.103699 759.764526,514.222656 759.956970,513.225525 
	C760.253418,513.842285 760.254211,514.575012 760.113037,515.646301 
z"/>
<path fill="#61AFFF" opacity="1.000000" stroke="none" 
	d="
M530.152710,325.282043 
	C530.754883,324.782959 531.352417,324.256409 532.201050,323.568115 
	C532.452209,323.406372 532.391113,323.389252 532.238525,323.658173 
	C531.438538,324.351105 530.791138,324.775116 530.143677,325.199097 
	C530.143677,325.199097 530.148010,325.254608 530.152710,325.282043 
z"/>
<path fill="#61AFFF" opacity="1.000000" stroke="none" 
	d="
M747.967773,348.046692 
	C748.125671,348.331360 748.322327,348.596375 748.731323,349.003113 
	C748.922363,349.160614 748.931702,349.106079 748.729004,348.949890 
	C748.286560,348.591827 748.096619,348.350708 747.956482,348.070312 
	C747.956482,348.070312 747.985413,348.042786 747.967773,348.046692 
z"/>
<path fill="#4290FF" opacity="1.000000" stroke="none" 
	d="
M539.404663,603.003784 
	C539.009460,593.650269 539.009094,584.296204 539.374573,574.432373 
	C544.069397,571.387817 544.968933,575.472046 546.763306,577.779236 
	C548.808716,577.176636 550.744995,576.712097 552.605896,576.039124 
	C559.550659,573.527405 566.626526,571.297852 573.359741,568.302673 
	C581.448975,564.704224 589.308472,560.564087 597.135559,556.409851 
	C603.467529,553.049194 609.648010,549.394287 615.813110,545.730896 
	C620.487122,542.953552 624.718567,538.431702 629.705017,537.410278 
	C637.493530,535.814819 643.457520,531.131775 650.206543,527.922729 
	C656.802063,524.786682 662.552429,519.890808 668.742249,515.872864 
	C670.488586,514.739319 672.723083,514.278503 674.303223,512.983704 
	C678.243958,509.754700 681.717224,505.929718 685.784607,502.887329 
	C691.051575,498.947632 696.785583,495.638519 702.172546,491.850372 
	C704.664978,490.097717 706.800415,487.840546 709.117737,485.835297 
	C712.705139,482.731018 716.471375,479.812531 719.861633,476.507355 
	C723.276550,473.178162 726.177917,469.323273 729.582764,465.982483 
	C732.109558,463.503174 735.404602,461.773804 737.781433,459.182190 
	C741.624634,454.991577 744.929626,450.312653 748.580261,445.938782 
	C753.583923,439.943726 758.746887,434.092926 759.942993,425.914825 
	C760.177673,424.310059 761.053040,422.798950 761.632935,421.244659 
	C762.115173,421.349091 762.597351,421.453552 763.079590,421.557983 
	C763.079590,423.118011 762.944763,424.691925 763.104126,426.235504 
	C763.640259,431.427917 764.281067,436.609467 764.881836,441.795197 
	C764.941040,442.967865 765.000244,444.140533 764.733032,445.888855 
	C764.565063,447.250061 764.723450,448.035645 764.881836,448.821259 
	C764.946716,451.566956 765.011658,454.312622 764.981323,457.502045 
	C762.499268,460.490509 759.726562,462.775482 757.802795,465.632080 
	C753.292053,472.330017 749.629700,479.632263 744.807068,486.078857 
	C738.793213,494.118011 730.947815,500.373779 722.426270,505.724121 
	C720.499817,506.933716 718.578613,508.203827 716.861328,509.685272 
	C710.318359,515.330078 703.962341,521.196533 697.308899,526.705261 
	C695.242249,528.416382 692.264465,528.984253 690.030273,530.543396 
	C680.921204,536.900085 673.064026,544.974976 662.317261,549.100952 
	C658.419373,550.597473 654.689209,553.864807 652.158630,557.271912 
	C648.479553,562.225281 642.072693,561.543762 638.127869,565.433044 
	C630.263306,573.186890 619.531860,575.759583 610.202026,580.863586 
	C603.502319,584.528687 596.870239,588.406311 589.879211,591.428833 
	C579.516846,595.909119 569.003540,600.149963 558.271729,603.617737 
	C553.254639,605.238892 547.479187,608.468506 542.217590,603.318298 
	C541.753479,602.863953 540.621460,603.092041 539.404663,603.003784 
z"/>
<path fill="#4796FF" opacity="1.000000" stroke="none" 
	d="
M764.603149,460.487122 
	C764.948364,462.489227 765.008728,464.711670 764.979431,467.333771 
	C764.699341,465.391449 764.508789,463.049438 764.603149,460.487122 
z"/>
<path fill="#59A8FF" opacity="1.000000" stroke="none" 
	d="
M734.494324,334.092865 
	C735.872498,335.868256 736.897705,337.583130 737.961670,340.072998 
	C738.929382,347.346680 734.733093,352.155090 731.080505,355.993561 
	C722.732788,364.766266 716.866760,375.617432 707.293518,383.355560 
	C703.779663,386.195862 701.753784,390.816437 698.407959,393.937531 
	C690.824341,401.011536 682.987427,407.834351 674.985474,414.434387 
	C665.063538,422.618134 655.014343,430.609009 643.715149,436.981323 
	C636.187622,441.226501 629.288452,446.576874 622.041931,451.331757 
	C614.787659,456.091705 607.474060,460.762695 600.128418,465.380432 
	C598.898560,466.153503 597.341797,466.385925 595.990356,466.989594 
	C588.366638,470.395294 580.631409,473.586090 573.195435,477.364288 
	C568.845642,479.574402 564.991882,482.086975 559.940369,483.410522 
	C552.403564,485.385254 545.766663,486.213074 539.013245,482.001221 
	C539.010803,472.647675 539.008362,463.294159 539.014893,453.472473 
	C542.985229,453.348511 546.985657,454.187866 550.895752,453.880035 
	C554.020142,453.634033 556.989929,451.822998 560.105652,450.998840 
	C572.869202,447.622467 583.097473,439.174225 594.854309,433.804901 
	C597.791809,432.463287 601.239563,432.071564 603.939758,430.409668 
	C611.149719,425.972168 618.209045,421.260132 625.087708,416.322144 
	C632.393921,411.077301 639.321533,405.305298 646.623779,400.054535 
	C649.599121,397.915070 653.749512,397.178467 656.281006,394.697357 
	C663.146423,387.968781 671.982422,383.773254 678.089417,375.885834 
	C683.151733,369.347656 690.418213,364.554504 696.414429,358.688049 
	C700.646179,354.547882 704.404785,349.921570 708.340698,345.482330 
	C712.154968,341.180389 715.993896,336.896790 719.678162,332.485046 
	C720.923279,330.994019 721.728821,329.135834 722.878723,327.204498 
	C726.634766,329.481567 730.388123,331.756958 734.494324,334.092865 
z"/>
<path fill="#6CB9FF" opacity="1.000000" stroke="none" 
	d="
M674.999084,309.998535 
	C672.253479,323.778625 661.732605,330.912537 651.103821,337.954773 
	C646.561096,340.964600 641.985840,343.927032 637.485107,346.998444 
	C628.140747,353.375214 619.036255,360.129272 609.461426,366.135559 
	C599.044250,372.670197 588.263550,378.636963 577.515503,384.625519 
	C574.212402,386.465942 570.463623,387.491364 566.978271,389.024933 
	C563.983704,390.342529 561.145325,392.033569 558.109070,393.233704 
	C553.843567,394.919739 549.454346,396.291595 545.126160,397.821014 
	C538.514465,400.157440 531.932800,402.581329 525.296692,404.845703 
	C515.186768,408.295349 504.621979,410.760406 495.049957,415.321625 
	C488.007019,418.677734 480.370270,416.809998 473.667572,420.063110 
	C472.080048,420.833618 470.566589,421.756744 468.001678,423.170471 
	C468.001678,414.677551 468.001678,406.806366 468.416290,398.414276 
	C470.949249,397.595581 473.059357,397.145508 475.187561,397.030701 
	C480.088440,396.766296 485.002411,396.447815 489.903198,396.545654 
	C498.265228,396.712555 505.335571,390.617279 513.870422,391.782379 
	C514.264343,391.836182 514.849548,391.467285 515.144409,391.122955 
	C520.897156,384.404755 529.945312,384.282898 537.243652,381.625854 
	C548.596741,377.492615 559.210327,372.329834 569.763306,366.740692 
	C571.033630,366.067902 572.410339,365.599182 573.712891,364.983337 
	C579.333435,362.325806 585.004211,359.764404 590.532593,356.926239 
	C593.015015,355.651764 595.141296,353.703094 597.540771,352.243958 
	C606.428223,346.839508 615.630432,341.904663 624.208191,336.051575 
	C634.096924,329.303894 643.328125,321.598236 653.118958,314.697388 
	C655.646423,312.915955 655.814636,311.390625 655.470215,309.014099 
	C659.973816,309.000610 664.014465,308.990509 668.055115,308.980438 
	C668.774048,308.977844 669.493042,308.975250 670.929504,308.986694 
	C672.764404,309.333374 673.881714,309.665955 674.999084,309.998535 
z"/>
<path fill="#76C3FE" opacity="1.000000" stroke="none" 
	d="
M667.754028,308.690399 
	C664.014465,308.990509 659.973816,309.000610 655.000732,309.008362 
	C643.863525,309.006073 633.658691,309.006073 622.568542,309.006073 
	C624.105103,311.374329 624.952576,312.680481 625.678040,313.798553 
	C621.256592,315.831543 616.905701,317.365723 613.045288,319.708313 
	C605.897278,324.045868 599.239624,329.209869 592.000549,333.373993 
	C584.216064,337.851807 576.014465,341.608856 567.965149,345.620605 
	C559.152649,350.012787 550.308350,354.341156 541.467712,358.676483 
	C541.034363,358.888947 540.493774,358.870361 540.018799,359.012024 
	C534.974548,360.516541 529.940186,362.054535 524.888184,363.532257 
	C522.987671,364.088135 521.051025,364.522339 519.126160,364.992676 
	C513.368652,366.399414 507.329041,367.118958 501.914398,369.353973 
	C493.484467,372.833649 485.238556,369.576935 476.939117,369.967468 
	C484.328217,363.943054 491.787994,358.002747 499.085602,351.869415 
	C505.744843,346.272583 512.228394,340.466614 518.962402,334.468597 
	C521.431580,332.425262 523.727661,330.666168 526.153687,328.604919 
	C527.464783,327.451355 528.645996,326.599884 529.985413,325.473755 
	C530.791138,324.775116 531.438538,324.351105 532.207581,323.651001 
	C533.575806,322.564484 534.822449,321.754089 536.192932,320.636719 
	C537.153564,319.790863 537.990234,319.251984 538.981934,318.451202 
	C541.324707,316.668060 543.512512,315.146820 545.876526,313.344696 
	C557.931274,306.750153 570.782166,306.893280 583.742615,307.034760 
	C605.706787,307.274536 627.676086,307.014954 649.641846,307.165894 
	C655.581421,307.206665 661.515991,307.969147 667.754028,308.690399 
z"/>
<path fill="#76C3FE" opacity="1.000000" stroke="none" 
	d="
M675.379517,309.999023 
	C673.881714,309.665955 672.764404,309.333374 671.288940,308.983398 
	C673.153870,309.120514 675.376831,309.274994 677.823486,309.710754 
	C677.284790,309.994537 676.522339,309.997040 675.379517,309.999023 
z"/>
<path fill="#70BDFF" opacity="1.000000" stroke="none" 
	d="
M476.636230,370.111206 
	C485.238556,369.576935 493.484467,372.833649 501.914398,369.353973 
	C507.329041,367.118958 513.368652,366.399414 519.126160,364.992676 
	C521.051025,364.522339 522.987671,364.088135 524.888184,363.532257 
	C529.940186,362.054535 534.974548,360.516541 540.018799,359.012024 
	C540.493774,358.870361 541.034363,358.888947 541.467712,358.676483 
	C550.308350,354.341156 559.152649,350.012787 567.965149,345.620605 
	C576.014465,341.608856 584.216064,337.851807 592.000549,333.373993 
	C599.239624,329.209869 605.897278,324.045868 613.045288,319.708313 
	C616.905701,317.365723 621.256592,315.831543 625.678040,313.798553 
	C624.952576,312.680481 624.105103,311.374329 622.568542,309.006073 
	C633.658691,309.006073 643.863525,309.006073 654.537842,309.011780 
	C655.814636,311.390625 655.646423,312.915955 653.118958,314.697388 
	C643.328125,321.598236 634.096924,329.303894 624.208191,336.051575 
	C615.630432,341.904663 606.428223,346.839508 597.540771,352.243958 
	C595.141296,353.703094 593.015015,355.651764 590.532593,356.926239 
	C585.004211,359.764404 579.333435,362.325806 573.712891,364.983337 
	C572.410339,365.599182 571.033630,366.067902 569.763306,366.740692 
	C559.210327,372.329834 548.596741,377.492615 537.243652,381.625854 
	C529.945312,384.282898 520.897156,384.404755 515.144409,391.122955 
	C514.849548,391.467285 514.264343,391.836182 513.870422,391.782379 
	C505.335571,390.617279 498.265228,396.712555 489.903198,396.545654 
	C485.002411,396.447815 480.088440,396.766296 475.187561,397.030701 
	C473.059357,397.145508 470.949249,397.595581 468.417816,397.945465 
	C467.882172,391.550476 467.759583,385.103394 467.346436,378.372803 
	C470.148376,375.477844 473.240875,372.866364 476.636230,370.111206 
z"/>
<path fill="#4D9CFF" opacity="1.000000" stroke="none" 
	d="
M539.004883,547.000000 
	C539.005432,538.312988 539.005981,529.625916 539.377319,520.429382 
	C541.366760,520.092285 544.182312,519.838013 544.419373,520.502991 
	C546.854492,527.333496 550.474121,524.187012 554.553345,522.352722 
	C565.481445,517.438782 576.665833,513.095703 587.603333,508.201721 
	C597.061951,503.969513 606.431824,499.504974 615.625916,494.729248 
	C620.806152,492.038452 625.389771,488.209320 630.538147,485.444092 
	C635.737671,482.651367 641.335327,480.608002 646.683777,478.078339 
	C647.926636,477.490509 648.856384,476.250122 649.948181,475.331451 
	C651.680664,473.873627 653.357971,472.336487 655.188660,471.012756 
	C657.159607,469.587616 659.407715,468.529114 661.301208,467.017822 
	C663.335815,465.393921 665.138000,463.468292 666.973389,461.606995 
	C673.345093,455.145233 682.884277,453.259003 688.812439,445.936462 
	C694.068542,439.444153 700.201599,433.660614 705.968872,427.584473 
	C707.458923,426.014587 708.842224,423.500885 710.597107,423.178925 
	C716.434631,422.107910 718.493591,417.047577 721.894653,413.492462 
	C725.948669,409.254730 729.722534,404.722107 733.331482,400.093964 
	C736.250122,396.351105 738.546204,392.122131 741.472900,388.386475 
	C745.950684,382.670929 750.733459,377.194336 755.583008,371.381226 
	C753.686340,370.204346 752.479797,369.455658 750.496643,368.225037 
	C752.161865,366.293396 753.584229,364.643494 755.006592,362.993561 
	C755.173950,363.006317 755.341309,363.019073 755.775146,363.331848 
	C756.348633,364.050323 756.655701,364.468719 756.962830,364.887115 
	C756.962830,364.887115 757.032898,364.975098 757.030518,365.353455 
	C757.349365,366.483063 757.670593,367.234314 757.991821,367.985565 
	C757.991821,367.985565 758.001831,367.998779 758.022766,368.302155 
	C758.368164,369.063110 758.692627,369.520660 759.017090,369.978241 
	C764.366150,381.086670 764.672913,393.059082 764.568604,405.406067 
	C763.452698,403.300171 762.790283,400.812378 761.773438,396.993011 
	C760.431091,399.746735 759.705566,401.330811 758.898560,402.872131 
	C756.855774,406.773376 755.205994,410.979767 752.585815,414.450073 
	C750.166626,417.654266 746.395020,419.805481 743.747253,422.876038 
	C739.331970,427.996368 735.337341,433.479584 731.167419,438.811432 
	C728.982849,441.604736 727.152039,444.801056 724.530579,447.094086 
	C721.281128,449.936401 717.077393,451.687286 713.826294,454.528076 
	C708.636963,459.062653 704.011475,464.236298 698.923096,468.894501 
	C694.953613,472.528351 690.671936,475.825714 686.471497,479.200989 
	C684.392700,480.871460 681.853088,482.080994 680.098450,484.020599 
	C675.412354,489.200653 671.765869,495.595673 663.730164,496.353241 
	C663.109924,496.411713 662.654358,497.544525 661.997864,497.997833 
	C656.645569,501.693298 651.430786,505.629944 645.836853,508.919769 
	C641.515747,511.461060 636.674072,513.103760 632.125793,515.275696 
	C626.897949,517.772034 621.690125,520.319397 616.560791,523.010742 
	C609.459412,526.736816 603.237000,531.806458 595.064392,533.908997 
	C587.462097,535.864746 580.403076,539.949707 573.124939,543.143005 
	C566.408813,546.089783 559.418701,548.585693 553.135010,552.277222 
	C549.580078,554.365723 547.685059,554.764343 545.517517,551.203674 
	C544.047058,548.787964 542.583496,546.214722 539.004883,547.000000 
M762.752991,395.021423 
	C762.599426,394.178223 762.445801,393.335052 762.292236,392.491852 
	C761.829834,392.666595 761.367493,392.841339 760.905090,393.016052 
	C761.374146,393.841278 761.843140,394.666473 762.752991,395.021423 
z"/>
<path fill="#4796FF" opacity="1.000000" stroke="none" 
	d="
M539.000305,547.443665 
	C542.583496,546.214722 544.047058,548.787964 545.517517,551.203674 
	C547.685059,554.764343 549.580078,554.365723 553.135010,552.277222 
	C559.418701,548.585693 566.408813,546.089783 573.124939,543.143005 
	C580.403076,539.949707 587.462097,535.864746 595.064392,533.908997 
	C603.237000,531.806458 609.459412,526.736816 616.560791,523.010742 
	C621.690125,520.319397 626.897949,517.772034 632.125793,515.275696 
	C636.674072,513.103760 641.515747,511.461060 645.836853,508.919769 
	C651.430786,505.629944 656.645569,501.693298 661.997864,497.997833 
	C662.654358,497.544525 663.109924,496.411713 663.730164,496.353241 
	C671.765869,495.595673 675.412354,489.200653 680.098450,484.020599 
	C681.853088,482.080994 684.392700,480.871460 686.471497,479.200989 
	C690.671936,475.825714 694.953613,472.528351 698.923096,468.894501 
	C704.011475,464.236298 708.636963,459.062653 713.826294,454.528076 
	C717.077393,451.687286 721.281128,449.936401 724.530579,447.094086 
	C727.152039,444.801056 728.982849,441.604736 731.167419,438.811432 
	C735.337341,433.479584 739.331970,427.996368 743.747253,422.876038 
	C746.395020,419.805481 750.166626,417.654266 752.585815,414.450073 
	C755.205994,410.979767 756.855774,406.773376 758.898560,402.872131 
	C759.705566,401.330811 760.431091,399.746735 761.773438,396.993011 
	C762.790283,400.812378 763.452698,403.300171 764.484253,405.855408 
	C764.923340,417.589172 764.993225,429.255554 764.972473,441.358551 
	C764.281067,436.609467 763.640259,431.427917 763.104126,426.235504 
	C762.944763,424.691925 763.079590,423.118011 763.079590,421.557983 
	C762.597351,421.453552 762.115173,421.349091 761.632935,421.244659 
	C761.053040,422.798950 760.177673,424.310059 759.942993,425.914825 
	C758.746887,434.092926 753.583923,439.943726 748.580261,445.938782 
	C744.929626,450.312653 741.624634,454.991577 737.781433,459.182190 
	C735.404602,461.773804 732.109558,463.503174 729.582764,465.982483 
	C726.177917,469.323273 723.276550,473.178162 719.861633,476.507355 
	C716.471375,479.812531 712.705139,482.731018 709.117737,485.835297 
	C706.800415,487.840546 704.664978,490.097717 702.172546,491.850372 
	C696.785583,495.638519 691.051575,498.947632 685.784607,502.887329 
	C681.717224,505.929718 678.243958,509.754700 674.303223,512.983704 
	C672.723083,514.278503 670.488586,514.739319 668.742249,515.872864 
	C662.552429,519.890808 656.802063,524.786682 650.206543,527.922729 
	C643.457520,531.131775 637.493530,535.814819 629.705017,537.410278 
	C624.718567,538.431702 620.487122,542.953552 615.813110,545.730896 
	C609.648010,549.394287 603.467529,553.049194 597.135559,556.409851 
	C589.308472,560.564087 581.448975,564.704224 573.359741,568.302673 
	C566.626526,571.297852 559.550659,573.527405 552.605896,576.039124 
	C550.744995,576.712097 548.808716,577.176636 546.763306,577.779236 
	C544.968933,575.472046 544.069397,571.387817 539.377808,573.964111 
	C539.008972,567.977173 539.002686,561.948730 538.987915,555.449768 
	C538.984863,552.615234 538.990295,550.251282 539.000305,547.443665 
z"/>
<path fill="#54A3FF" opacity="1.000000" stroke="none" 
	d="
M539.003784,482.437683 
	C545.766663,486.213074 552.403564,485.385254 559.940369,483.410522 
	C564.991882,482.086975 568.845642,479.574402 573.195435,477.364288 
	C580.631409,473.586090 588.366638,470.395294 595.990356,466.989594 
	C597.341797,466.385925 598.898560,466.153503 600.128418,465.380432 
	C607.474060,460.762695 614.787659,456.091705 622.041931,451.331757 
	C629.288452,446.576874 636.187622,441.226501 643.715149,436.981323 
	C655.014343,430.609009 665.063538,422.618134 674.985474,414.434387 
	C682.987427,407.834351 690.824341,401.011536 698.407959,393.937531 
	C701.753784,390.816437 703.779663,386.195862 707.293518,383.355560 
	C716.866760,375.617432 722.732788,364.766266 731.080505,355.993561 
	C734.733093,352.155090 738.929382,347.346680 738.001465,340.421295 
	C739.415710,340.647308 740.828918,341.300049 742.569824,342.023621 
	C744.070068,343.977783 745.242737,345.861145 746.737305,348.213562 
	C747.698914,349.432953 748.338623,350.183258 748.978271,350.933594 
	C748.978271,350.933594 749.022644,350.983765 749.118591,351.210999 
	C749.374634,351.691223 749.598145,351.860535 749.885132,351.946075 
	C749.919067,352.402954 749.952942,352.859802 749.853088,353.982910 
	C745.658142,361.749817 742.254456,369.345367 737.373901,375.829224 
	C730.877258,384.460052 723.309204,392.296356 716.039001,400.326874 
	C713.228210,403.431702 709.949158,406.109497 706.926697,409.026703 
	C703.989990,411.861115 701.106262,414.750519 698.203613,417.620239 
	C694.963867,420.823181 691.760986,424.064514 688.471558,427.215576 
	C687.534668,428.113098 686.291992,428.682831 685.292725,429.525330 
	C679.705994,434.235687 674.274048,439.139862 668.539917,443.661560 
	C664.945740,446.495819 661.229492,449.753357 657.016724,451.114014 
	C645.510864,454.830139 639.587830,466.332764 627.879578,470.258789 
	C618.796448,473.304596 610.978760,480.103088 602.566345,485.180084 
	C598.793884,487.456818 595.083435,489.913696 591.088745,491.723846 
	C586.815308,493.660309 582.152527,494.723694 577.822205,496.552887 
	C573.752991,498.271820 569.947632,500.605042 565.930420,502.460419 
	C562.099365,504.229858 558.113892,505.662048 554.252197,507.368896 
	C549.747009,509.360138 545.707825,510.162384 542.752197,504.793701 
	C542.211426,503.811279 540.302673,503.581879 539.025391,503.004883 
	C539.015564,498.639954 539.005737,494.274994 538.981934,489.442810 
	C538.976807,486.941742 538.985596,484.907928 539.003784,482.437683 
z"/>
<path fill="#509FFF" opacity="1.000000" stroke="none" 
	d="
M539.017822,503.471924 
	C540.302673,503.581879 542.211426,503.811279 542.752197,504.793701 
	C545.707825,510.162384 549.747009,509.360138 554.252197,507.368896 
	C558.113892,505.662048 562.099365,504.229858 565.930420,502.460419 
	C569.947632,500.605042 573.752991,498.271820 577.822205,496.552887 
	C582.152527,494.723694 586.815308,493.660309 591.088745,491.723846 
	C595.083435,489.913696 598.793884,487.456818 602.566345,485.180084 
	C610.978760,480.103088 618.796448,473.304596 627.879578,470.258789 
	C639.587830,466.332764 645.510864,454.830139 657.016724,451.114014 
	C661.229492,449.753357 664.945740,446.495819 668.539917,443.661560 
	C674.274048,439.139862 679.705994,434.235687 685.292725,429.525330 
	C686.291992,428.682831 687.534668,428.113098 688.471558,427.215576 
	C691.760986,424.064514 694.963867,420.823181 698.203613,417.620239 
	C701.106262,414.750519 703.989990,411.861115 706.926697,409.026703 
	C709.949158,406.109497 713.228210,403.431702 716.039001,400.326874 
	C723.309204,392.296356 730.877258,384.460052 737.373901,375.829224 
	C742.254456,369.345367 745.658142,361.749817 749.861572,354.326538 
	C750.171936,354.008209 750.340027,354.012573 750.774841,354.314453 
	C751.356995,355.068024 751.672546,355.524109 751.988098,355.980194 
	C751.988098,355.980194 752.000305,356.000061 752.103210,356.216370 
	C752.387329,356.699280 752.636230,356.863007 752.952820,356.923859 
	C752.952820,356.923859 753.016174,356.984497 753.036804,357.290863 
	C753.373535,357.932343 753.689697,358.267456 754.005798,358.602570 
	C754.338928,359.805389 754.672119,361.008179 755.005920,362.602295 
	C753.584229,364.643494 752.161865,366.293396 750.496643,368.225037 
	C752.479797,369.455658 753.686340,370.204346 755.583008,371.381226 
	C750.733459,377.194336 745.950684,382.670929 741.472900,388.386475 
	C738.546204,392.122131 736.250122,396.351105 733.331482,400.093964 
	C729.722534,404.722107 725.948669,409.254730 721.894653,413.492462 
	C718.493591,417.047577 716.434631,422.107910 710.597107,423.178925 
	C708.842224,423.500885 707.458923,426.014587 705.968872,427.584473 
	C700.201599,433.660614 694.068542,439.444153 688.812439,445.936462 
	C682.884277,453.259003 673.345093,455.145233 666.973389,461.606995 
	C665.138000,463.468292 663.335815,465.393921 661.301208,467.017822 
	C659.407715,468.529114 657.159607,469.587616 655.188660,471.012756 
	C653.357971,472.336487 651.680664,473.873627 649.948181,475.331451 
	C648.856384,476.250122 647.926636,477.490509 646.683777,478.078339 
	C641.335327,480.608002 635.737671,482.651367 630.538147,485.444092 
	C625.389771,488.209320 620.806152,492.038452 615.625916,494.729248 
	C606.431824,499.504974 597.061951,503.969513 587.603333,508.201721 
	C576.665833,513.095703 565.481445,517.438782 554.553345,522.352722 
	C550.474121,524.187012 546.854492,527.333496 544.419373,520.502991 
	C544.182312,519.838013 541.366760,520.092285 539.383057,519.960876 
	C539.015442,514.647583 539.012878,509.293304 539.017822,503.471924 
z"/>
<path fill="#59A8FF" opacity="1.000000" stroke="none" 
	d="
M748.989868,350.620514 
	C748.338623,350.183258 747.698914,349.432953 747.041748,348.370789 
	C747.024231,348.058929 747.490540,348.031647 747.723511,348.050964 
	C748.096619,348.350708 748.286560,348.591827 748.716919,348.925018 
	C748.938843,349.473358 748.970093,349.890411 748.989868,350.620514 
z"/>
<path fill="#509FFF" opacity="1.000000" stroke="none" 
	d="
M758.005005,367.654755 
	C757.670593,367.234314 757.349365,366.483063 757.052734,365.405151 
	C757.390869,365.826965 757.704468,366.575470 758.005005,367.654755 
z"/>
<path fill="#4796FF" opacity="1.000000" stroke="none" 
	d="
M764.967102,448.496338 
	C764.723450,448.035645 764.565063,447.250061 764.644165,446.322388 
	C764.938477,446.844025 764.995361,447.507751 764.967102,448.496338 
z"/>
<path fill="#59A8FF" opacity="1.000000" stroke="none" 
	d="
M751.975647,355.686340 
	C751.672546,355.524109 751.356995,355.068024 751.026978,354.319946 
	C751.329407,354.482758 751.646301,354.937622 751.975647,355.686340 
z"/>
<path fill="#59A8FF" opacity="1.000000" stroke="none" 
	d="
M753.985962,358.364624 
	C753.689697,358.267456 753.373535,357.932343 753.062927,357.326050 
	C753.367615,357.412140 753.666870,357.769409 753.985962,358.364624 
z"/>
<path fill="#509FFF" opacity="1.000000" stroke="none" 
	d="
M758.999634,369.682312 
	C758.692627,369.520660 758.368164,369.063110 758.026794,368.309448 
	C758.333984,368.471008 758.658081,368.928711 758.999634,369.682312 
z"/>
<path fill="#509FFF" opacity="1.000000" stroke="none" 
	d="
M756.974487,364.604736 
	C756.655701,364.468719 756.348633,364.050323 756.025757,363.355927 
	C756.335327,363.494080 756.660706,363.908234 756.974487,364.604736 
z"/>
<path fill="#59A8FF" opacity="1.000000" stroke="none" 
	d="
M752.857178,356.718506 
	C752.636230,356.863007 752.387329,356.699280 752.111572,356.224548 
	C752.320557,356.099152 752.568665,356.264771 752.857178,356.718506 
z"/>
<path fill="#59A8FF" opacity="1.000000" stroke="none" 
	d="
M749.822144,351.738037 
	C749.598145,351.860535 749.374634,351.691223 749.138062,351.238220 
	C749.359009,351.110229 749.591492,351.274139 749.822144,351.738037 
z"/>
<path fill="#4796FF" opacity="1.000000" stroke="none" 
	d="
M762.532593,395.256531 
	C761.843140,394.666473 761.374146,393.841278 760.905090,393.016052 
	C761.367493,392.841339 761.829834,392.666595 762.292236,392.491852 
	C762.445801,393.335052 762.599426,394.178223 762.532593,395.256531 
z"/>
</svg>